<?xml version="1.0" encoding="UTF-8" standalone="no"?>
<svg
   xmlns:dc="http://purl.org/dc/elements/1.1/"
   xmlns:cc="http://creativecommons.org/ns#"
   xmlns:rdf="http://www.w3.org/1999/02/22-rdf-syntax-ns#"
   xmlns:svg="http://www.w3.org/2000/svg"
   xmlns="http://www.w3.org/2000/svg"
   xmlns:sodipodi="http://sodipodi.sourceforge.net/DTD/sodipodi-0.dtd"
   xmlns:inkscape="http://www.inkscape.org/namespaces/inkscape"
   width="256.0px"
   height="256.0px"
   viewBox="0 0 256.0 256.0"
   version="1.1"
   id="SVGRoot"
   sodipodi:docname="netease_icon.svg"
   inkscape:version="1.0.1 (3bc2e813f5, 2020-09-07)">
  <defs
     id="defs10">
    <style
       type="text/css"
       id="style118" />
  </defs>
  <sodipodi:namedview
     id="base"
     pagecolor="#ffffff"
     bordercolor="#666666"
     borderopacity="1.0"
     inkscape:pageopacity="0.0"
     inkscape:pageshadow="2"
     inkscape:zoom="1.4"
     inkscape:cx="227.22274"
     inkscape:cy="106.5"
     inkscape:document-units="px"
     inkscape:current-layer="layer1"
     inkscape:document-rotation="0"
     showgrid="true"
     inkscape:window-width="1458"
     inkscape:window-height="1045"
     inkscape:window-x="363"
     inkscape:window-y="101"
     inkscape:window-maximized="0">
    <inkscape:grid
       type="xygrid"
       id="grid19" />
  </sodipodi:namedview>
  <metadata
     id="metadata13">
    <rdf:RDF>
      <cc:Work
         rdf:about="">
        <dc:format>image/svg+xml</dc:format>
        <dc:type
           rdf:resource="http://purl.org/dc/dcmitype/StillImage" />
        <dc:title></dc:title>
      </cc:Work>
    </rdf:RDF>
  </metadata>
  <g
     inkscape:label="图层 1"
     inkscape:groupmode="layer"
     id="layer1"
     >
    <path
       d="m 155.84908,6.4874448 c 6.92392,-1.5386504 14.23251,-1.5386504 20.38712,0 7.69325,1.5386504 15.00184,5.3852762 21.15644,10.3858902 2.30797,1.538651 4.61595,3.846626 5.38528,6.923927 1.92331,3.846626 1.92331,8.462577 -1.53866,12.693866 -2.30797,3.077301 -5.38527,5.385277 -9.2319,6.154602 -3.0773,0.769325 -6.1546,0 -9.2319,-1.538651 -1.53865,-0.769325 -2.30798,-2.307975 -3.84663,-3.0773 -3.84662,-2.307976 -8.46257,-4.615952 -13.46319,-4.615952 -3.0773,0 -6.1546,2.307976 -8.46257,4.615952 -2.30798,2.307975 -3.07731,5.385276 -2.30798,8.462577 1.53865,6.154602 3.0773,12.693866 4.61595,18.848468 11.92454,0.769325 24.23374,3.846626 34.61964,10.38589 10.38589,6.154602 18.84846,14.232516 26.54172,23.464423 6.1546,7.693253 11.15521,17.309803 13.46319,26.541713 3.0773,10.38589 3.84662,21.15644 3.0773,32.31166 -0.76933,8.46257 -2.30798,18.07914 -5.38528,25.77239 -7.69325,20.38713 -21.92577,38.46627 -40.77424,50.00615 -13.46319,8.46258 -28.84969,14.23251 -45.39018,15.77115 -11.15522,1.53865 -21.92577,1.53865 -33.08099,-0.76933 C 89.687108,244.97824 68.530665,233.82303 52.759498,217.28254 36.988331,201.51137 25.448453,180.35494 21.217164,158.42917 17.755201,142.27334 17.755201,125.73285 21.986489,109.19236 26.602441,89.574568 36.219006,70.7261 50.06686,55.724258 61.9914,43.799718 75.069929,33.79849 90.841096,27.643888 c 1.53865,-0.769325 3.077301,-1.53865 4.615951,-1.53865 3.846626,-0.769325 7.693253,0 10.385893,2.307975 3.84663,3.077301 6.1546,7.693252 5.38528,12.693866 -0.76933,4.615952 -3.84663,9.231903 -8.46258,11.155216 -15.77117,5.385276 -29.619024,16.540492 -39.235589,29.619021 -8.462577,11.92454 -15.001842,25.772394 -16.540492,40.774234 -2.307976,15.00184 0,29.61902 4.615951,43.08221 7.693252,20.38712 22.695094,37.69692 41.543562,46.92884 11.924538,6.15459 24.233748,9.23191 37.696938,8.46258 11.15521,0 21.15644,-1.53865 31.54233,-5.38527 8.46258,-3.07731 17.30982,-7.69326 24.23375,-14.23254 6.1546,-5.38528 11.92454,-12.69386 16.54049,-20.38711 2.30797,-3.84662 3.84662,-7.69325 5.38527,-12.69386 3.07731,-12.69387 3.84663,-25.7724 0,-37.69694 -3.84662,-8.46258 -10.38589,-18.07913 -18.07914,-25.00306 -3.84662,-3.0773 -6.92393,-6.154603 -11.92454,-8.46258 -3.84662,-2.307976 -7.69325,-3.077301 -11.92454,-4.615951 3.0773,11.155221 5.38528,21.925771 8.46258,33.080981 0.76932,2.30797 0.76932,5.38527 1.53865,7.69325 0.76932,11.15521 -3.84663,22.69509 -11.15522,31.54233 -6.92392,7.69325 -16.54049,14.23252 -26.54172,15.77117 -11.15521,2.30797 -23.46442,0 -33.08098,-6.1546 -9.231905,-5.38528 -15.771169,-15.00184 -19.617795,-25.00307 -2.307976,-5.38528 -3.077301,-11.92454 -3.077301,-18.07914 -0.769325,-13.4632 3.077301,-26.54171 10.38589,-37.696934 8.462576,-13.463191 22.695096,-21.925768 37.696936,-26.541719 -0.76932,-3.846626 -2.30798,-8.462578 -3.0773,-12.693866 -3.0773,-9.231903 -2.30798,-19.617793 2.30798,-28.080371 2.30797,-4.615951 5.38527,-8.462577 9.2319,-12.693866 5.38527,-2.692638 10.77055,-5.7699388 16.15583,-7.3085892 M 119.69079,106.11506 c -3.84662,3.84663 -6.92392,9.23191 -7.69325,15.00183 -0.76932,5.38528 -0.76932,10.3859 0,15.77117 1.53865,5.38528 3.84663,11.15522 9.2319,15.00184 3.84663,2.30798 8.46258,3.0773 13.46319,2.30798 8.46258,-1.53865 15.00185,-9.2319 15.77117,-18.07914 0,-2.30798 -0.76932,-3.84663 -1.53865,-6.15461 -3.0773,-11.92454 -6.1546,-23.4644 -9.2319,-35.388948 -8.07792,2.307975 -14.23252,6.154608 -20.00246,11.539878 z"
       fill="#DD001B"
       p-id="4086"
       id="path122"
       style="stroke-width:0.240414" />
  </g>
</svg>
